<?xml version="1.0" encoding="UTF-8" standalone="no"?>
<!DOCTYPE svg PUBLIC "-//W3C//DTD SVG 1.1//EN" "http://www.w3.org/Graphics/SVG/1.1/DTD/svg11.dtd">
<svg width="100%" height="100%" viewBox="0 0 4725 2953" version="1.1" xmlns="http://www.w3.org/2000/svg" xmlns:xlink="http://www.w3.org/1999/xlink" xml:space="preserve" xmlns:serif="http://www.serif.com/" style="fill-rule:evenodd;clip-rule:evenodd;stroke-linejoin:round;stroke-miterlimit:2;">
    <g transform="matrix(1.270739,0,0,1.270739,-582.456082,-1427.408182)">
        <g transform="matrix(1.456487,0,0,1.015826,386.570482,1063.930407)">
            <path d="M2468.777,1443.682C2437.908,1443.682 2410.254,1433.392 2385.816,1412.813C2361.377,1392.233 2341.923,1363.132 2327.453,1325.51C2312.983,1287.888 2305.748,1244.317 2305.748,1194.798C2305.748,1143.992 2313.144,1099.296 2327.936,1060.709C2342.727,1022.122 2362.985,991.896 2388.71,970.03C2414.434,948.164 2443.053,937.231 2474.565,937.231C2512.509,937.231 2543.217,952.827 2566.691,984.018C2590.165,1015.209 2601.901,1065.854 2601.901,1135.953C2601.901,1157.176 2593.862,1167.787 2577.785,1167.787L2394.498,1167.787C2381.636,1167.787 2375.204,1175.183 2375.204,1189.974C2375.204,1258.144 2385.173,1309.272 2405.109,1343.357C2425.046,1377.441 2450.448,1394.484 2481.318,1394.484C2505.756,1394.484 2525.693,1385.802 2541.127,1368.438C2556.562,1351.074 2569.103,1321.812 2578.749,1280.653C2580.679,1273.579 2584.859,1270.042 2591.29,1270.042C2599.007,1270.042 2601.901,1276.473 2599.972,1289.335C2589.682,1346.572 2573.283,1386.606 2550.774,1409.436C2528.265,1432.267 2500.933,1443.682 2468.777,1443.682ZM2391.604,1143.67L2489.035,1143.67C2519.905,1143.67 2535.339,1127.592 2535.339,1095.437C2535.339,1053.635 2530.194,1020.836 2519.905,997.041C2509.615,973.246 2494.18,961.348 2473.601,961.348C2448.519,961.348 2427.457,975.818 2410.415,1004.758C2393.372,1033.698 2382.279,1074.857 2377.134,1128.236C2375.847,1138.525 2380.671,1143.67 2391.604,1143.67Z" style="fill:rgb(39,73,146);stroke:rgb(39,73,146);stroke-width:5.22px;"/>
        </g>
        <g transform="matrix(1.456487,0,0,1.015826,386.570482,1063.930407)">
            <path d="M2468.777,1443.682C2437.908,1443.682 2410.254,1433.392 2385.816,1412.813C2361.377,1392.233 2341.923,1363.132 2327.453,1325.51C2312.983,1287.888 2305.748,1244.317 2305.748,1194.798C2305.748,1143.992 2313.144,1099.296 2327.936,1060.709C2342.727,1022.122 2362.985,991.896 2388.71,970.03C2414.434,948.164 2443.053,937.231 2474.565,937.231C2512.509,937.231 2543.217,952.827 2566.691,984.018C2590.165,1015.209 2601.901,1065.854 2601.901,1135.953C2601.901,1157.176 2593.862,1167.787 2577.785,1167.787L2394.498,1167.787C2381.636,1167.787 2375.204,1175.183 2375.204,1189.974C2375.204,1258.144 2385.173,1309.272 2405.109,1343.357C2425.046,1377.441 2450.448,1394.484 2481.318,1394.484C2505.756,1394.484 2525.693,1385.802 2541.127,1368.438C2556.562,1351.074 2569.103,1321.812 2578.749,1280.653C2580.679,1273.579 2584.859,1270.042 2591.29,1270.042C2599.007,1270.042 2601.901,1276.473 2599.972,1289.335C2589.682,1346.572 2573.283,1386.606 2550.774,1409.436C2528.265,1432.267 2500.933,1443.682 2468.777,1443.682Z" style="fill:none;stroke:rgb(39,73,146);stroke-width:5.22px;"/>
        </g>
        <g transform="matrix(1.456487,0,0,1.015826,386.570482,1063.930407)">
            <path d="M2391.604,1143.67L2489.035,1143.67C2519.905,1143.67 2535.339,1127.592 2535.339,1095.437C2535.339,1053.635 2530.194,1020.836 2519.905,997.041C2509.615,973.246 2494.18,961.348 2473.601,961.348C2448.519,961.348 2427.457,975.818 2410.415,1004.758C2393.372,1033.698 2382.279,1074.857 2377.134,1128.236C2375.847,1138.525 2380.671,1143.67 2391.604,1143.67Z" style="fill:none;stroke:rgb(39,73,146);stroke-width:5.22px;"/>
        </g>
        <g transform="matrix(1.456487,0,0,1.015826,428.63478,1072.749823)">
            <path d="M2116.673,1370.367L2116.673,993.182C2116.673,977.747 2108.956,970.03 2093.521,970.03L2071.334,970.03C2063.617,970.03 2059.758,966.814 2059.758,960.383C2059.758,953.952 2063.617,950.415 2071.334,949.772C2101.56,946.556 2116.673,933.373 2116.673,910.221L2116.673,904.433C2116.673,870.991 2121.657,839.8 2131.626,810.86C2141.594,781.92 2156.064,758.446 2175.036,740.439C2194.008,722.432 2217.32,713.428 2244.974,713.428C2270.699,713.428 2292.243,720.824 2309.607,735.616C2326.971,750.407 2335.653,768.093 2335.653,788.672C2335.653,800.892 2332.598,810.056 2326.489,816.165C2320.379,822.275 2312.179,825.33 2301.89,825.33C2289.027,825.33 2279.863,821.15 2274.397,812.789C2268.93,804.429 2264.589,794.943 2261.374,784.331C2258.158,773.72 2254.139,764.234 2249.315,755.874C2244.492,747.513 2235.971,743.333 2223.752,743.333C2210.889,743.333 2200.76,750.568 2193.364,765.038C2185.969,779.508 2182.271,806.68 2182.271,846.553L2182.271,931.443C2182.271,939.161 2186.129,943.019 2193.847,943.019L2276.808,943.019C2286.455,943.019 2291.278,947.521 2291.278,956.525C2291.278,965.528 2286.455,970.03 2276.808,970.03L2193.847,970.03C2186.129,970.03 2182.271,973.889 2182.271,981.606L2182.271,1370.367C2182.271,1383.873 2184.361,1393.198 2188.541,1398.343C2192.721,1403.488 2201.564,1406.703 2215.069,1407.989L2266.197,1412.813C2273.271,1414.099 2276.808,1417.636 2276.808,1423.424C2276.808,1431.141 2271.985,1435 2262.338,1435L2061.687,1435C2052.041,1435 2047.217,1431.463 2047.217,1424.389C2047.217,1417.314 2051.397,1413.456 2059.758,1412.813L2083.875,1410.883C2097.38,1409.597 2106.223,1405.899 2110.403,1399.79C2114.583,1393.68 2116.673,1383.873 2116.673,1370.367Z" style="fill:rgb(39,73,146);stroke:black;stroke-width:5.22px;"/>
        </g>
        <g transform="matrix(1.456487,0,0,1.015826,428.63478,1072.749823)">
            <path d="M2116.673,1370.367L2116.673,993.182C2116.673,977.747 2108.956,970.03 2093.521,970.03L2071.334,970.03C2063.617,970.03 2059.758,966.814 2059.758,960.383C2059.758,953.952 2063.617,950.415 2071.334,949.772C2101.56,946.556 2116.673,933.373 2116.673,910.221L2116.673,904.433C2116.673,870.991 2121.657,839.8 2131.626,810.86C2141.594,781.92 2156.064,758.446 2175.036,740.439C2194.008,722.432 2217.32,713.428 2244.974,713.428C2270.699,713.428 2292.243,720.824 2309.607,735.616C2326.971,750.407 2335.653,768.093 2335.653,788.672C2335.653,800.892 2332.598,810.056 2326.489,816.165C2320.379,822.275 2312.179,825.33 2301.89,825.33C2289.027,825.33 2279.863,821.15 2274.397,812.789C2268.93,804.429 2264.589,794.943 2261.374,784.331C2258.158,773.72 2254.139,764.234 2249.315,755.874C2244.492,747.513 2235.971,743.333 2223.752,743.333C2210.889,743.333 2200.76,750.568 2193.364,765.038C2185.969,779.508 2182.271,806.68 2182.271,846.553L2182.271,931.443C2182.271,939.161 2186.129,943.019 2193.847,943.019L2276.808,943.019C2286.455,943.019 2291.278,947.521 2291.278,956.525C2291.278,965.528 2286.455,970.03 2276.808,970.03L2193.847,970.03C2186.129,970.03 2182.271,973.889 2182.271,981.606L2182.271,1370.367C2182.271,1383.873 2184.361,1393.198 2188.541,1398.343C2192.721,1403.488 2201.564,1406.703 2215.069,1407.989L2266.197,1412.813C2273.271,1414.099 2276.808,1417.636 2276.808,1423.424C2276.808,1431.141 2271.985,1435 2262.338,1435L2061.687,1435C2052.041,1435 2047.217,1431.463 2047.217,1424.389C2047.217,1417.314 2051.397,1413.456 2059.758,1412.813L2083.875,1410.883C2097.38,1409.597 2106.223,1405.899 2110.403,1399.79C2114.583,1393.68 2116.673,1383.873 2116.673,1370.367Z" style="fill:none;stroke:rgb(39,73,146);stroke-width:5.22px;"/>
        </g>
        <g transform="matrix(1.456487,0,0,1.015826,457.179495,1072.749823)">
            <path d="M1838.849,1370.367L1838.849,993.182C1838.849,977.747 1831.132,970.03 1815.697,970.03L1793.51,970.03C1785.792,970.03 1781.934,966.814 1781.934,960.383C1781.934,953.952 1785.792,950.415 1793.51,949.772C1823.736,946.556 1838.849,933.373 1838.849,910.221L1838.849,904.433C1838.849,870.991 1843.833,839.8 1853.801,810.86C1863.77,781.92 1878.24,758.446 1897.211,740.439C1916.183,722.432 1939.496,713.428 1967.15,713.428C1992.874,713.428 2014.419,720.824 2031.783,735.616C2049.147,750.407 2057.829,768.093 2057.829,788.672C2057.829,800.892 2054.774,810.056 2048.664,816.165C2042.555,822.275 2034.355,825.33 2024.065,825.33C2011.203,825.33 2002.039,821.15 1996.572,812.789C1991.106,804.429 1986.765,794.943 1983.549,784.331C1980.334,773.72 1976.314,764.234 1971.491,755.874C1966.667,747.513 1958.146,743.333 1945.927,743.333C1933.065,743.333 1922.936,750.568 1915.54,765.038C1908.144,779.508 1904.446,806.68 1904.446,846.553L1904.446,931.443C1904.446,939.161 1908.305,943.019 1916.022,943.019L1998.984,943.019C2008.631,943.019 2013.454,947.521 2013.454,956.525C2013.454,965.528 2008.631,970.03 1998.984,970.03L1916.022,970.03C1908.305,970.03 1904.446,973.889 1904.446,981.606L1904.446,1370.367C1904.446,1383.873 1906.536,1393.198 1910.717,1398.343C1914.897,1403.488 1923.74,1406.703 1937.245,1407.989L1988.373,1412.813C1995.447,1414.099 1998.984,1417.636 1998.984,1423.424C1998.984,1431.141 1994.161,1435 1984.514,1435L1783.863,1435C1774.216,1435 1769.393,1431.463 1769.393,1424.389C1769.393,1417.314 1773.573,1413.456 1781.934,1412.813L1806.05,1410.883C1819.556,1409.597 1828.398,1405.899 1832.579,1399.79C1836.759,1393.68 1838.849,1383.873 1838.849,1370.367Z" style="fill:rgb(39,73,146);stroke:rgb(39,73,146);stroke-width:5.22px;"/>
        </g>
        <g transform="matrix(1.456487,0,0,1.015826,457.179495,1072.749823)">
            <path d="M1838.849,1370.367L1838.849,993.182C1838.849,977.747 1831.132,970.03 1815.697,970.03L1793.51,970.03C1785.792,970.03 1781.934,966.814 1781.934,960.383C1781.934,953.952 1785.792,950.415 1793.51,949.772C1823.736,946.556 1838.849,933.373 1838.849,910.221L1838.849,904.433C1838.849,870.991 1843.833,839.8 1853.801,810.86C1863.77,781.92 1878.24,758.446 1897.211,740.439C1916.183,722.432 1939.496,713.428 1967.15,713.428C1992.874,713.428 2014.419,720.824 2031.783,735.616C2049.147,750.407 2057.829,768.093 2057.829,788.672C2057.829,800.892 2054.774,810.056 2048.664,816.165C2042.555,822.275 2034.355,825.33 2024.065,825.33C2011.203,825.33 2002.039,821.15 1996.572,812.789C1991.106,804.429 1986.765,794.943 1983.549,784.331C1980.334,773.72 1976.314,764.234 1971.491,755.874C1966.667,747.513 1958.146,743.333 1945.927,743.333C1933.065,743.333 1922.936,750.568 1915.54,765.038C1908.144,779.508 1904.446,806.68 1904.446,846.553L1904.446,931.443C1904.446,939.161 1908.305,943.019 1916.022,943.019L1998.984,943.019C2008.631,943.019 2013.454,947.521 2013.454,956.525C2013.454,965.528 2008.631,970.03 1998.984,970.03L1916.022,970.03C1908.305,970.03 1904.446,973.889 1904.446,981.606L1904.446,1370.367C1904.446,1383.873 1906.536,1393.198 1910.717,1398.343C1914.897,1403.488 1923.74,1406.703 1937.245,1407.989L1988.373,1412.813C1995.447,1414.099 1998.984,1417.636 1998.984,1423.424C1998.984,1431.141 1994.161,1435 1984.514,1435L1783.863,1435C1774.216,1435 1769.393,1431.463 1769.393,1424.389C1769.393,1417.314 1773.573,1413.456 1781.934,1412.813L1806.05,1410.883C1819.556,1409.597 1828.398,1405.899 1832.579,1399.79C1836.759,1393.68 1838.849,1383.873 1838.849,1370.367Z" style="fill:none;stroke:rgb(39,73,146);stroke-width:5.22px;"/>
        </g>
        <g transform="matrix(1.456487,0,0,1.015826,510.570482,1063.930407)">
            <path d="M1599.611,1443.682C1568.742,1443.682 1541.088,1433.392 1516.65,1412.813C1492.212,1392.233 1472.757,1363.132 1458.287,1325.51C1443.817,1287.888 1436.582,1244.317 1436.582,1194.798C1436.582,1143.992 1443.978,1099.296 1458.77,1060.709C1473.561,1022.122 1493.819,991.896 1519.544,970.03C1545.268,948.164 1573.887,937.231 1605.399,937.231C1643.343,937.231 1674.052,952.827 1697.525,984.018C1720.999,1015.209 1732.735,1065.854 1732.735,1135.953C1732.735,1157.176 1724.697,1167.787 1708.619,1167.787L1525.332,1167.787C1512.47,1167.787 1506.038,1175.183 1506.038,1189.974C1506.038,1258.144 1516.007,1309.272 1535.943,1343.357C1555.88,1377.441 1581.283,1394.484 1612.152,1394.484C1636.59,1394.484 1656.527,1385.802 1671.961,1368.438C1687.396,1351.074 1699.937,1321.812 1709.583,1280.653C1711.513,1273.579 1715.693,1270.042 1722.124,1270.042C1729.841,1270.042 1732.735,1276.473 1730.806,1289.335C1720.516,1346.572 1704.117,1386.606 1681.608,1409.436C1659.099,1432.267 1631.767,1443.682 1599.611,1443.682ZM1522.438,1143.67L1619.869,1143.67C1650.739,1143.67 1666.173,1127.592 1666.173,1095.437C1666.173,1053.635 1661.028,1020.836 1650.739,997.041C1640.449,973.246 1625.014,961.348 1604.435,961.348C1579.353,961.348 1558.291,975.818 1541.249,1004.758C1524.206,1033.698 1513.113,1074.857 1507.968,1128.236C1506.682,1138.525 1511.505,1143.67 1522.438,1143.67Z" style="fill:rgb(39,73,146);stroke:rgb(39,73,146);stroke-width:5.22px;"/>
        </g>
        <g transform="matrix(1.456487,0,0,1.015826,510.570482,1063.930407)">
            <path d="M1599.611,1443.682C1568.742,1443.682 1541.088,1433.392 1516.65,1412.813C1492.212,1392.233 1472.757,1363.132 1458.287,1325.51C1443.817,1287.888 1436.582,1244.317 1436.582,1194.798C1436.582,1143.992 1443.978,1099.296 1458.77,1060.709C1473.561,1022.122 1493.819,991.896 1519.544,970.03C1545.268,948.164 1573.887,937.231 1605.399,937.231C1643.343,937.231 1674.052,952.827 1697.525,984.018C1720.999,1015.209 1732.735,1065.854 1732.735,1135.953C1732.735,1157.176 1724.697,1167.787 1708.619,1167.787L1525.332,1167.787C1512.47,1167.787 1506.038,1175.183 1506.038,1189.974C1506.038,1258.144 1516.007,1309.272 1535.943,1343.357C1555.88,1377.441 1581.283,1394.484 1612.152,1394.484C1636.59,1394.484 1656.527,1385.802 1671.961,1368.438C1687.396,1351.074 1699.937,1321.812 1709.583,1280.653C1711.513,1273.579 1715.693,1270.042 1722.124,1270.042C1729.841,1270.042 1732.735,1276.473 1730.806,1289.335C1720.516,1346.572 1704.117,1386.606 1681.608,1409.436C1659.099,1432.267 1631.767,1443.682 1599.611,1443.682Z" style="fill:none;stroke:rgb(39,73,146);stroke-width:5.22px;"/>
        </g>
        <g transform="matrix(1.456487,0,0,1.015826,510.570482,1063.930407)">
            <path d="M1522.438,1143.67L1619.869,1143.67C1650.739,1143.67 1666.173,1127.592 1666.173,1095.437C1666.173,1053.635 1661.028,1020.836 1650.739,997.041C1640.449,973.246 1625.014,961.348 1604.435,961.348C1579.353,961.348 1558.291,975.818 1541.249,1004.758C1524.206,1033.698 1513.113,1074.857 1507.968,1128.236C1506.682,1138.525 1511.505,1143.67 1522.438,1143.67Z" style="fill:none;stroke:rgb(39,73,146);stroke-width:5.22px;"/>
        </g>
        <g transform="matrix(1.456487,0,0,1.015826,535.751065,1072.749823)">
            <path d="M1309.246,851.376C1295.741,851.376 1284.326,846.553 1275,836.906C1265.675,827.259 1261.013,815.04 1261.013,800.248C1261.013,785.457 1265.675,773.399 1275,764.073C1284.326,754.748 1295.741,750.086 1309.246,750.086C1322.752,750.086 1334.006,754.748 1343.01,764.073C1352.013,773.399 1356.515,785.457 1356.515,800.248C1356.515,815.04 1352.013,827.259 1343.01,836.906C1334.006,846.553 1322.752,851.376 1309.246,851.376Z" style="fill:rgb(39,73,146);stroke:rgb(39,73,146);stroke-width:5.22px;"/>
        </g>
        <g transform="matrix(1.456487,0,0,1.015826,535.751065,1072.749823)">
            <path d="M1228.214,1435C1218.567,1435 1213.744,1431.463 1213.744,1424.389C1213.744,1418.601 1217.924,1414.742 1226.285,1412.813L1237.861,1410.883C1253.939,1408.311 1264.228,1404.291 1268.73,1398.825C1273.232,1393.358 1275.483,1383.873 1275.483,1370.367L1275.483,1046.239C1275.483,1034.663 1273.714,1026.785 1270.177,1022.604C1266.64,1018.424 1260.37,1015.691 1251.366,1014.405L1231.108,1011.511C1222.748,1010.868 1218.567,1007.331 1218.567,1000.899C1218.567,995.754 1223.712,992.217 1234.002,990.288C1253.939,987.072 1270.016,981.928 1282.236,974.853C1294.455,967.779 1306.352,959.097 1317.928,948.807C1323.716,943.019 1328.54,940.125 1332.398,940.125C1338.186,940.125 1341.08,943.984 1341.08,951.701L1341.08,1370.367C1341.08,1383.873 1343.01,1393.519 1346.868,1399.307C1350.727,1405.095 1358.123,1408.632 1369.056,1409.919L1393.172,1412.813C1400.247,1414.099 1403.784,1417.636 1403.784,1423.424C1403.784,1431.141 1398.96,1435 1389.314,1435L1228.214,1435Z" style="fill:rgb(39,73,146);stroke:rgb(39,73,146);stroke-width:5.22px;"/>
        </g>
        <g transform="matrix(1.456487,0,0,1.015826,535.751065,1072.749823)">
            <path d="M1309.246,851.376C1295.741,851.376 1284.326,846.553 1275,836.906C1265.675,827.259 1261.013,815.04 1261.013,800.248C1261.013,785.457 1265.675,773.399 1275,764.073C1284.326,754.748 1295.741,750.086 1309.246,750.086C1322.752,750.086 1334.006,754.748 1343.01,764.073C1352.013,773.399 1356.515,785.457 1356.515,800.248C1356.515,815.04 1352.013,827.259 1343.01,836.906C1334.006,846.553 1322.752,851.376 1309.246,851.376Z" style="fill:rgb(39,73,146);stroke:rgb(39,73,146);stroke-width:5.22px;"/>
        </g>
        <g transform="matrix(1.456487,0,0,1.015826,535.751065,1072.749823)">
            <path d="M1228.214,1435C1218.567,1435 1213.744,1431.463 1213.744,1424.389C1213.744,1418.601 1217.924,1414.742 1226.285,1412.813L1237.861,1410.883C1253.939,1408.311 1264.228,1404.291 1268.73,1398.825C1273.232,1393.358 1275.483,1383.873 1275.483,1370.367L1275.483,1046.239C1275.483,1034.663 1273.714,1026.785 1270.177,1022.604C1266.64,1018.424 1260.37,1015.691 1251.366,1014.405L1231.108,1011.511C1222.748,1010.868 1218.567,1007.331 1218.567,1000.899C1218.567,995.754 1223.712,992.217 1234.002,990.288C1253.939,987.072 1270.016,981.928 1282.236,974.853C1294.455,967.779 1306.352,959.097 1317.928,948.807C1323.716,943.019 1328.54,940.125 1332.398,940.125C1338.186,940.125 1341.08,943.984 1341.08,951.701L1341.08,1370.367C1341.08,1383.873 1343.01,1393.519 1346.868,1399.307C1350.727,1405.095 1358.123,1408.632 1369.056,1409.919L1393.172,1412.813C1400.247,1414.099 1403.784,1417.636 1403.784,1423.424C1403.784,1431.141 1398.96,1435 1389.314,1435L1228.214,1435Z" style="fill:none;stroke:rgb(39,73,146);stroke-width:5.22px;"/>
        </g>
        <g transform="matrix(1.456487,0,0,1.015826,544.570482,1063.930407)">
            <path d="M720.799,1435C711.152,1435 706.329,1431.463 706.329,1424.389C706.329,1418.601 710.509,1414.742 718.869,1412.813L741.057,1408.954C762.923,1405.095 773.855,1392.555 773.855,1371.332L773.855,804.107C773.855,790.602 771.765,781.598 767.585,777.096C763.405,772.595 754.562,769.058 741.057,766.485L718.869,762.626C710.509,760.697 706.329,756.838 706.329,751.05C706.329,743.976 711.152,740.439 720.799,740.439L915.662,740.439C965.824,740.439 1009.234,755.07 1045.892,784.331C1082.549,813.593 1110.846,854.591 1130.783,907.327C1150.719,960.062 1160.687,1021.157 1160.687,1090.614C1160.687,1160.713 1150.237,1221.487 1129.336,1272.936C1108.434,1324.385 1079.012,1364.258 1041.068,1392.555C1003.125,1420.852 958.107,1435 906.015,1435L720.799,1435ZM909.874,1409.919C967.111,1409.919 1010.681,1382.586 1040.586,1327.922C1070.491,1273.257 1085.443,1194.155 1085.443,1090.614C1085.443,987.716 1071.134,907.809 1042.516,850.894C1013.897,793.978 971.612,765.52 915.662,765.52C866.785,765.52 842.347,788.994 842.347,835.941L842.347,1339.498C842.347,1365.222 847.653,1383.39 858.264,1394.002C868.875,1404.613 886.079,1409.919 909.874,1409.919Z" style="fill:rgb(39,73,146);stroke:rgb(39,73,146);stroke-width:5.22px;"/>
        </g>
        <g transform="matrix(1.456487,0,0,1.015826,544.570482,1063.930407)">
            <path d="M720.799,1435C711.152,1435 706.329,1431.463 706.329,1424.389C706.329,1418.601 710.509,1414.742 718.869,1412.813L741.057,1408.954C762.923,1405.095 773.855,1392.555 773.855,1371.332L773.855,804.107C773.855,790.602 771.765,781.598 767.585,777.096C763.405,772.595 754.562,769.058 741.057,766.485L718.869,762.626C710.509,760.697 706.329,756.838 706.329,751.05C706.329,743.976 711.152,740.439 720.799,740.439L915.662,740.439C965.824,740.439 1009.234,755.07 1045.892,784.331C1082.549,813.593 1110.846,854.591 1130.783,907.327C1150.719,960.062 1160.687,1021.157 1160.687,1090.614C1160.687,1160.713 1150.237,1221.487 1129.336,1272.936C1108.434,1324.385 1079.012,1364.258 1041.068,1392.555C1003.125,1420.852 958.107,1435 906.015,1435L720.799,1435Z" style="fill:none;stroke:rgb(39,73,146);stroke-width:5.22px;"/>
        </g>
        <g transform="matrix(1.456487,0,0,1.015826,544.570482,1063.930407)">
            <path d="M909.874,1409.919C967.111,1409.919 1010.681,1382.586 1040.586,1327.922C1070.491,1273.257 1085.443,1194.155 1085.443,1090.614C1085.443,987.716 1071.134,907.809 1042.516,850.894C1013.897,793.978 971.612,765.52 915.662,765.52C866.785,765.52 842.347,788.994 842.347,835.941L842.347,1339.498C842.347,1365.222 847.653,1383.39 858.264,1394.002C868.875,1404.613 886.079,1409.919 909.874,1409.919Z" style="fill:none;stroke:rgb(39,73,146);stroke-width:5.22px;"/>
        </g>
    </g>
    <g transform="matrix(0.880168,0,0,1.103735,713.29139,618.383244)">
        <rect x="4523.804" y="1174.465" width="33.413" height="197.016" style="fill:rgb(0,183,233);"/>
    </g>
    <g transform="matrix(0.880168,0,0,1.103735,713.29139,618.383244)">
        <rect x="4523.804" y="1174.465" width="33.413" height="197.016" style="fill:none;"/>
    </g>
    <g transform="matrix(0.880168,0,0,1.103735,713.29139,618.383244)">
        <path d="M4222.1,1370.757L4255.022,1370.757L4255.022,1224.805L4427.495,1370.757L4444.201,1370.757L4444.201,1175.551L4411.279,1175.551L4411.279,1321.503L4239.299,1175.551L4222.1,1175.551L4222.1,1370.757Z" style="fill:rgb(0,183,233);"/>
    </g>
    <g transform="matrix(0.880168,0,0,1.103735,713.29139,618.383244)">
        <path d="M4222.1,1370.757L4255.022,1370.757L4255.022,1224.805L4427.495,1370.757L4444.201,1370.757L4444.201,1175.551L4411.279,1175.551L4411.279,1321.503L4239.299,1175.551L4222.1,1175.551L4222.1,1370.757Z" style="fill:none;"/>
    </g>
    <g transform="matrix(0.880168,0,0,1.103735,713.29139,618.383244)">
        <path d="M4026.534,1375.827C4105.645,1375.827 4164.118,1333.092 4164.118,1273.697C4164.118,1214.303 4105.645,1171.205 4026.534,1171.205C3947.423,1171.205 3889.441,1214.303 3889.441,1273.697C3889.441,1333.092 3947.423,1375.827 4026.534,1375.827ZM4026.534,1353.011C3967.569,1353.011 3923.346,1320.054 3923.346,1273.697C3923.346,1227.341 3967.569,1194.022 4026.534,1194.022C4085.99,1194.022 4129.722,1227.341 4129.722,1273.697C4129.722,1319.692 4085.99,1353.011 4026.534,1353.011Z" style="fill:rgb(0,183,233);"/>
    </g>
    <g transform="matrix(0.880168,0,0,1.103735,713.29139,618.383244)">
        <path d="M4026.534,1375.827C4105.645,1375.827 4164.118,1333.092 4164.118,1273.697C4164.118,1214.303 4105.645,1171.205 4026.534,1171.205C3947.423,1171.205 3889.441,1214.303 3889.441,1273.697C3889.441,1333.092 3947.423,1375.827 4026.534,1375.827Z" style="fill:none;"/>
    </g>
    <g transform="matrix(0.880168,0,0,1.103735,713.29139,618.383244)">
        <path d="M4026.534,1353.011C3967.569,1353.011 3923.346,1320.054 3923.346,1273.697C3923.346,1227.341 3967.569,1194.022 4026.534,1194.022C4085.99,1194.022 4129.722,1227.341 4129.722,1273.697C4129.722,1319.692 4085.99,1353.011 4026.534,1353.011Z" style="fill:none;"/>
    </g>
    <g transform="matrix(0.880168,0,0,1.103735,713.29139,618.383244)">
        <rect x="3797.554" y="1174.465" width="33.413" height="197.016" style="fill:rgb(0,183,233);"/>
    </g>
    <g transform="matrix(0.880168,0,0,1.103735,713.29139,618.383244)">
        <rect x="3797.554" y="1174.465" width="33.413" height="197.016" style="fill:none;"/>
    </g>
    <g transform="matrix(0.880168,0,0,1.103735,713.29139,618.383244)">
        <path d="M3506.661,1370.757L3743.994,1370.757L3743.994,1348.303L3570.048,1348.303L3744.977,1175.551L3521.402,1175.551L3521.402,1198.005L3685.029,1198.005L3506.468,1370.469L3506.661,1370.757Z" style="fill:rgb(0,183,233);"/>
    </g>
    <g transform="matrix(0.880168,0,0,1.103735,713.29139,618.383244)">
        <path d="M3506.17,1370.757L3506.661,1370.757L3506.468,1370.469L3506.17,1370.757Z" style="fill:rgb(0,183,233);"/>
    </g>
    <g transform="matrix(0.880168,0,0,1.103735,713.29139,618.383244)">
        <path d="M3506.468,1370.469L3375.464,1175.551L3347.947,1175.551L3218.225,1370.757L3253.604,1370.757L3288.491,1318.243L3434.92,1318.243L3470.791,1370.757L3506.17,1370.757L3506.468,1370.469ZM3303.724,1295.427L3361.706,1208.87L3420.179,1295.427L3303.724,1295.427Z" style="fill:rgb(0,183,233);"/>
    </g>
    <g transform="matrix(0.880168,0,0,1.103735,713.29139,618.383244)">
        <path d="M3303.724,1295.427L3361.706,1208.87L3420.179,1295.427L3303.724,1295.427Z" style="fill:none;"/>
    </g>
    <g transform="matrix(0.880168,0,0,1.103735,713.29139,618.383244)">
        <path d="M2976.602,1370.757L3009.524,1370.757L3009.524,1285.286L3112.221,1285.286L3178.557,1370.757L3214.918,1370.757L3148.583,1284.924C3187.401,1279.854 3211.479,1257.4 3211.479,1229.876C3211.479,1195.832 3180.522,1175.551 3128.436,1175.551L2976.602,1175.551L2976.602,1370.757ZM3009.524,1262.47L3009.524,1198.005L3127.945,1198.005C3159.884,1198.005 3177.082,1210.319 3177.082,1230.6C3177.082,1251.243 3159.884,1262.47 3126.471,1262.47L3009.524,1262.47Z" style="fill:rgb(0,183,233);"/>
    </g>
    <g transform="matrix(0.880168,0,0,1.103735,713.29139,618.383244)">
        <path d="M2976.602,1370.757L3009.524,1370.757L3009.524,1285.286L3112.221,1285.286L3178.557,1370.757L3214.918,1370.757L3148.583,1284.924C3187.401,1279.854 3211.479,1257.4 3211.479,1229.876C3211.479,1195.832 3180.522,1175.551 3128.436,1175.551L2976.602,1175.551L2976.602,1370.757Z" style="fill:none;"/>
    </g>
    <g transform="matrix(0.880168,0,0,1.103735,713.29139,618.383244)">
        <path d="M3009.524,1262.47L3009.524,1198.005L3127.945,1198.005C3159.884,1198.005 3177.082,1210.319 3177.082,1230.6C3177.082,1251.243 3159.884,1262.47 3126.471,1262.47L3009.524,1262.47Z" style="fill:none;"/>
    </g>
    <g transform="matrix(0.880168,0,0,1.103735,713.29139,618.383244)">
        <path d="M2719.614,1175.551L2686.692,1175.551L2686.692,1308.465C2686.692,1356.27 2717.648,1375.827 2795.777,1375.827C2873.905,1375.827 2904.862,1356.27 2904.862,1308.465L2904.862,1175.551L2871.94,1175.551L2871.94,1301.946C2871.94,1342.508 2856.216,1353.011 2795.777,1353.011C2735.338,1353.011 2719.614,1342.508 2719.614,1301.946L2719.614,1175.551Z" style="fill:rgb(0,183,233);"/>
    </g>
    <g transform="matrix(0.880168,0,0,1.103735,713.29139,618.383244)">
        <path d="M2719.614,1175.551L2686.692,1175.551L2686.692,1308.465C2686.692,1356.27 2717.648,1375.827 2795.777,1375.827C2873.905,1375.827 2904.862,1356.27 2904.862,1308.465L2904.862,1175.551L2871.94,1175.551L2871.94,1301.946C2871.94,1342.508 2856.216,1353.011 2795.777,1353.011C2735.338,1353.011 2719.614,1342.508 2719.614,1301.946L2719.614,1175.551Z" style="fill:none;"/>
    </g>
    <g transform="matrix(0.880168,0,0,1.103735,713.29139,618.383244)">
        <rect x="2423.316" y="1175.551" width="51.103" height="22.454" style="fill:rgb(0,183,233);"/>
    </g>
    <g transform="matrix(0.880168,0,0,1.103735,713.29139,618.383244)">
        <path d="M2474.419,1198.005L2534.858,1198.005L2534.858,1370.757L2567.78,1370.757L2567.78,1198.005L2679.321,1198.005L2679.321,1175.551L2474.419,1175.551L2474.419,1198.005Z" style="fill:rgb(0,183,233);"/>
    </g>
    <g transform="matrix(0.880168,0,0,1.103735,713.29139,618.383244)">
        <path d="M2423.316,1175.551L2218.413,1175.551L2218.413,1198.005L2329.955,1198.005L2329.955,1370.757L2362.877,1370.757L2362.877,1198.005L2423.316,1198.005L2423.316,1175.551Z" style="fill:rgb(0,183,233);"/>
    </g>
    <g transform="matrix(0.880168,0,0,1.103735,713.29139,618.383244)">
        <path d="M2025.303,1175.551L1992.381,1175.551L1992.381,1308.465C1992.381,1356.27 2023.338,1375.827 2101.466,1375.827C2179.595,1375.827 2210.551,1356.27 2210.551,1308.465L2210.551,1175.551L2177.629,1175.551L2177.629,1301.946C2177.629,1342.508 2161.905,1353.011 2101.466,1353.011C2041.027,1353.011 2025.303,1342.508 2025.303,1301.946L2025.303,1175.551Z" style="fill:rgb(0,183,233);"/>
    </g>
    <g transform="matrix(0.880168,0,0,1.103735,713.29139,618.383244)">
        <path d="M2025.303,1175.551L1992.381,1175.551L1992.381,1308.465C1992.381,1356.27 2023.338,1375.827 2101.466,1375.827C2179.595,1375.827 2210.551,1356.27 2210.551,1308.465L2210.551,1175.551L2177.629,1175.551L2177.629,1301.946C2177.629,1342.508 2161.905,1353.011 2101.466,1353.011C2041.027,1353.011 2025.303,1342.508 2025.303,1301.946L2025.303,1175.551Z" style="fill:none;"/>
    </g>
    <g transform="matrix(0.880168,0,0,1.103735,713.29139,618.383244)">
        <path d="M1704.437,1370.757L1737.359,1370.757L1737.359,1285.286L1840.056,1285.286L1906.391,1370.757L1942.753,1370.757L1876.417,1284.924C1915.236,1279.854 1939.313,1257.4 1939.313,1229.876C1939.313,1195.832 1908.357,1175.551 1856.271,1175.551L1704.437,1175.551L1704.437,1370.757ZM1737.359,1262.47L1737.359,1198.005L1855.78,1198.005C1887.719,1198.005 1904.917,1210.319 1904.917,1230.6C1904.917,1251.243 1887.719,1262.47 1854.306,1262.47L1737.359,1262.47Z" style="fill:rgb(0,183,233);"/>
    </g>
    <g transform="matrix(0.880168,0,0,1.103735,713.29139,618.383244)">
        <path d="M1704.437,1370.757L1737.359,1370.757L1737.359,1285.286L1840.056,1285.286L1906.391,1370.757L1942.753,1370.757L1876.417,1284.924C1915.236,1279.854 1939.313,1257.4 1939.313,1229.876C1939.313,1195.832 1908.357,1175.551 1856.271,1175.551L1704.437,1175.551L1704.437,1370.757Z" style="fill:none;"/>
    </g>
    <g transform="matrix(0.880168,0,0,1.103735,713.29139,618.383244)">
        <path d="M1737.359,1262.47L1737.359,1198.005L1855.78,1198.005C1887.719,1198.005 1904.917,1210.319 1904.917,1230.6C1904.917,1251.243 1887.719,1262.47 1854.306,1262.47L1737.359,1262.47Z" style="fill:none;"/>
    </g>
    <g transform="matrix(0.880168,0,0,1.103735,713.29139,618.383244)">
        <path d="M1547.197,1370.757L1580.119,1370.757L1580.119,1198.005L1691.661,1198.005L1691.661,1175.551L1435.656,1175.551L1435.656,1198.005L1547.197,1198.005L1547.197,1370.757Z" style="fill:rgb(0,183,233);"/>
    </g>
    <g transform="matrix(0.880168,0,0,1.103735,713.29139,618.383244)">
        <path d="M1547.197,1370.757L1580.119,1370.757L1580.119,1198.005L1691.661,1198.005L1691.661,1175.551L1435.656,1175.551L1435.656,1198.005L1547.197,1198.005L1547.197,1370.757Z" style="fill:none;"/>
    </g>
    <g transform="matrix(0.880168,0,0,1.103735,713.29139,618.383244)">
        <path d="M1182.598,1341.422C1223.874,1364.962 1268.589,1375.827 1320.674,1375.827C1395.363,1375.827 1437.621,1346.854 1437.621,1313.173C1437.621,1283.476 1405.682,1259.935 1350.157,1255.227C1301.511,1251.243 1263.675,1254.141 1241.072,1241.465C1232.718,1236.757 1228.296,1231.324 1228.296,1224.081C1228.296,1207.784 1255.322,1194.022 1297.088,1194.022C1334.924,1194.022 1371.286,1203.8 1404.208,1223.357L1423.371,1203.076C1385.044,1182.432 1341.312,1171.205 1296.597,1171.205C1233.701,1171.205 1193.9,1195.108 1193.9,1225.168C1193.9,1242.551 1207.167,1256.676 1231.736,1265.368C1259.744,1274.784 1295.614,1275.146 1340.82,1277.681C1382.096,1280.216 1402.734,1294.703 1402.734,1312.449C1402.734,1335.627 1370.794,1353.373 1320.183,1353.373C1281.364,1353.373 1239.598,1342.146 1201.762,1320.416L1182.598,1341.422Z" style="fill:rgb(0,183,233);"/>
    </g>
    <g transform="matrix(0.880168,0,0,1.103735,713.29139,618.383244)">
        <path d="M1182.598,1341.422C1223.874,1364.962 1268.589,1375.827 1320.674,1375.827C1395.363,1375.827 1437.621,1346.854 1437.621,1313.173C1437.621,1283.476 1405.682,1259.935 1350.157,1255.227C1301.511,1251.243 1263.675,1254.141 1241.072,1241.465C1232.718,1236.757 1228.296,1231.324 1228.296,1224.081C1228.296,1207.784 1255.322,1194.022 1297.088,1194.022C1334.924,1194.022 1371.286,1203.8 1404.208,1223.357L1423.371,1203.076C1385.044,1182.432 1341.312,1171.205 1296.597,1171.205C1233.701,1171.205 1193.9,1195.108 1193.9,1225.168C1193.9,1242.551 1207.167,1256.676 1231.736,1265.368C1259.744,1274.784 1295.614,1275.146 1340.82,1277.681C1382.096,1280.216 1402.734,1294.703 1402.734,1312.449C1402.734,1335.627 1370.794,1353.373 1320.183,1353.373C1281.364,1353.373 1239.598,1342.146 1201.762,1320.416L1182.598,1341.422Z" style="fill:none;"/>
    </g>
    <g transform="matrix(0.880168,0,0,1.103735,713.29139,618.383244)">
        <rect x="1094.642" y="1174.465" width="33.413" height="197.016" style="fill:rgb(0,183,233);"/>
    </g>
    <g transform="matrix(0.880168,0,0,1.103735,713.29139,618.383244)">
        <rect x="1094.642" y="1174.465" width="33.413" height="197.016" style="fill:none;"/>
    </g>
    <g transform="matrix(0.880168,0,0,1.103735,713.29139,618.383244)">
        <path d="M799.327,1370.757L832.249,1370.757L832.249,1285.286L934.946,1285.286L1001.282,1370.757L1037.643,1370.757L971.308,1284.924C1010.126,1279.854 1034.204,1257.4 1034.204,1229.876C1034.204,1195.832 1003.247,1175.551 951.161,1175.551L799.327,1175.551L799.327,1370.757ZM832.249,1262.47L832.249,1198.005L950.67,1198.005C982.609,1198.005 999.807,1210.319 999.807,1230.6C999.807,1251.243 982.609,1262.47 949.196,1262.47L832.249,1262.47Z" style="fill:rgb(0,183,233);"/>
    </g>
    <g transform="matrix(0.880168,0,0,1.103735,713.29139,618.383244)">
        <path d="M799.327,1370.757L832.249,1370.757L832.249,1285.286L934.946,1285.286L1001.282,1370.757L1037.643,1370.757L971.308,1284.924C1010.126,1279.854 1034.204,1257.4 1034.204,1229.876C1034.204,1195.832 1003.247,1175.551 951.161,1175.551L799.327,1175.551L799.327,1370.757Z" style="fill:none;"/>
    </g>
    <g transform="matrix(0.880168,0,0,1.103735,713.29139,618.383244)">
        <path d="M832.249,1262.47L832.249,1198.005L950.67,1198.005C982.609,1198.005 999.807,1210.319 999.807,1230.6C999.807,1251.243 982.609,1262.47 949.196,1262.47L832.249,1262.47Z" style="fill:none;"/>
    </g>
    <g transform="matrix(1.145493,-0.669742,1.06282,1.817795,-2527.277774,-1953.980935)">
        <path d="M1444,1944L1441.613,2004.034L1224.51,2235.002L975,2237L975,1944L1444,1944Z" style="fill:rgb(178,180,179);"/>
    </g>
    <g transform="matrix(1.145493,-0.669742,1.06282,1.817795,-2323.95956,-1299.11728)">
        <path d="M1321.487,1942.203L1044.837,2240.373L975.407,2241.344L975,1944L1321.487,1942.203Z" style="fill:rgb(0,183,233);"/>
    </g>
    <g transform="matrix(1.145493,-0.669742,1.06282,1.817795,-3182.979013,-1729.060161)">
        <path d="M1444,1944L1444.711,2234.097L1224.51,2235.002L975,2237L975,1944L1444,1944Z" style="fill:rgb(0,183,233);"/>
    </g>
    <g transform="matrix(1.145493,-0.669742,1.06282,1.817795,-2979.625391,-1073.358922)">
        <path d="M1444,1944L1444.711,2234.097L1224.51,2235.002L975,2237L975,1944L1444,1944Z" style="fill:rgb(178,180,179);"/>
    </g>
    <g transform="matrix(0.17302,-0.101161,0.163062,0.278893,98.168472,363.615459)">
        <path d="M1444,1944L1444.711,2234.097L1224.51,2235.002L975,2237L975,1944L1444,1944Z" style="fill:rgb(39,73,146);"/>
    </g>
    <g transform="matrix(0.17302,-0.101161,0.163062,0.278893,301.481193,1015.504482)">
        <path d="M1444,1944L1444.711,2234.097L1224.51,2235.002L975,2237L975,1944L1444,1944Z" style="fill:rgb(39,73,146);"/>
    </g>
    <g transform="matrix(0.17302,-0.101161,0.163062,0.278893,-354.220046,1236.613039)">
        <path d="M1444,1944L1444.711,2234.097L1224.51,2235.002L975,2237L975,1944L1444,1944Z" style="fill:rgb(39,73,146);"/>
    </g>
    <g transform="matrix(0.17302,-0.101161,0.163062,0.278893,511.153101,1677.559416)">
        <path d="M1444,1944L1444.711,2234.097L1224.51,2235.002L975,2237L975,1944L1444,1944Z" style="fill:rgb(39,73,146);"/>
    </g>
</svg>
